<svg xmlns="http://www.w3.org/2000/svg" width="411" height="337" viewBox="0 0 411 337" version="1.1">
	<path d="M 86.894 15.556 C 57.002 20.968, 32.290 39.715, 22.556 64.365 C 17.966 75.985, 16.732 83.971, 17.355 98 C 19.116 137.638, 40.401 180.200, 82.116 227.500 C 96.063 243.313, 134.637 281, 136.877 281 C 137.898 281, 151.251 262.297, 155.106 255.466 C 160.296 246.271, 159.546 240.869, 147.200 198.500 C 142.633 182.825, 140 170.803, 140 165.619 C 140 163.350, 140.894 161.091, 142.589 159.077 C 144.766 156.490, 145.886 156, 149.629 156 C 154.310 156, 160.351 153.484, 163.179 150.356 C 164.102 149.335, 165.726 146.472, 166.788 143.994 C 169.518 137.626, 174.940 135.113, 180.731 137.532 C 185.726 139.619, 193.092 139.641, 196.240 137.578 C 197.647 136.657, 199.355 134.557, 200.036 132.913 C 201.572 129.204, 203.733 128, 208.852 128 C 214.778 128, 215.829 128.719, 218.952 134.905 C 222.614 142.160, 225.524 143.861, 231.297 142.122 C 233.609 141.425, 236.678 140.621, 238.118 140.334 C 241.119 139.735, 246.507 142.187, 247.845 144.760 C 248.343 145.717, 249.285 154.600, 249.940 164.500 C 251.521 188.429, 253.972 200.285, 257.630 201.688 C 261.040 202.997, 261.857 199.648, 260.252 190.939 C 259.437 186.516, 259.012 182.654, 259.309 182.358 C 259.605 182.062, 262.565 183.039, 265.886 184.529 C 270.954 186.804, 272.111 187.805, 273.088 190.765 C 274.401 194.744, 273.623 209.015, 271.746 215.388 C 270.282 220.359, 263.557 227.698, 248.500 240.757 C 241.900 246.481, 235.150 252.629, 233.500 254.420 C 218.151 271.076, 182 315.181, 182 317.252 C 182 317.565, 186.462 320.801, 191.915 324.443 L 201.829 331.064 206.210 328.282 C 217.773 320.939, 226.916 313.673, 226.201 312.395 C 225.794 311.667, 221.914 306.945, 217.580 301.902 C 210.147 293.254, 209.779 292.605, 211.100 290.482 C 214.791 284.548, 239.312 257.099, 245.950 251.469 L 253.444 245.113 255.590 251.038 C 257.934 257.513, 260.428 261.143, 268.452 269.764 L 273.734 275.439 283.449 266.521 C 319.507 233.422, 350.510 195.122, 367.361 162.857 C 380.028 138.606, 385.812 119.016, 386.659 97.500 C 387.327 80.521, 385.878 72.403, 379.988 60.123 C 369.849 38.983, 350.151 23.539, 325 17.009 C 313.183 13.941, 289.342 13.132, 275.473 15.329 C 246.985 19.841, 221.426 34.234, 206.533 54.151 L 202.308 59.802 197.943 53.809 C 184.259 35.017, 157.632 20.023, 130 15.547 C 118.414 13.670, 97.287 13.675, 86.894 15.556 M 174.465 64.930 C 168.217 67.529, 168.196 73.191, 174.331 100.500 C 176.802 111.500, 179.147 122.685, 179.541 125.355 C 180.174 129.635, 180.654 130.375, 183.597 131.605 C 189.011 133.867, 192.696 133.416, 194.662 130.250 C 195.601 128.738, 197.185 126.572, 198.182 125.438 C 199.943 123.436, 199.879 122.915, 195.968 107.438 C 193.753 98.672, 191.298 89.700, 190.511 87.500 C 189.724 85.300, 188.156 80.279, 187.025 76.343 C 185.895 72.406, 184.190 68.263, 183.235 67.135 C 181.188 64.717, 177.318 63.743, 174.465 64.930 M 220.089 77.911 C 217.998 80.002, 217.470 83.967, 216.508 104.772 C 216.196 111.521, 215.673 118.384, 215.346 120.022 C 214.906 122.221, 215.126 123, 216.188 123 C 218.183 123, 222.367 127.677, 224.910 132.750 C 227.049 137.017, 228.999 137.917, 232 136.022 C 233.243 135.238, 233.558 131.257, 233.837 112.814 C 234.223 87.349, 233.664 80.664, 230.918 77.918 C 228.392 75.392, 222.612 75.388, 220.089 77.911 M 130.230 84.551 C 125.733 87.701, 125.714 89.096, 130.001 101.625 C 134.055 113.475, 144.965 141.099, 147.615 146.223 C 148.657 148.238, 149.806 149, 151.803 149 C 155.980 149, 158.580 146.599, 162.061 139.527 L 165.228 133.094 160.064 123.797 C 157.223 118.684, 151.992 108.512, 148.438 101.193 C 144.885 93.874, 140.878 86.787, 139.534 85.443 C 136.728 82.637, 133.416 82.320, 130.230 84.551 M 263.952 110.752 C 261.743 112.725, 259.938 116.189, 257.569 123.002 C 255.753 128.226, 253.658 133.961, 252.915 135.746 C 251.717 138.625, 251.776 139.351, 253.434 142.158 C 254.850 144.555, 255.495 148.465, 256.089 158.266 C 256.521 165.384, 257.128 171.461, 257.437 171.771 C 257.747 172.080, 258 171.581, 258 170.661 C 258 169.742, 259.827 164.604, 262.059 159.245 C 267.405 146.411, 273.919 125.064, 274.664 117.940 C 275.179 113.014, 274.975 111.975, 273.129 110.129 C 270.271 107.271, 267.649 107.448, 263.952 110.752 M 104.014 208.959 C 97.162 211.324, 91 217.464, 91 221.926 C 91 226.052, 93.267 226.998, 103.184 227.012 C 115.849 227.030, 129.791 231.582, 139.400 238.836 C 144.146 242.420, 150.168 246, 151.450 246 C 152.776 246, 151.770 238.799, 148.879 227.596 C 147.163 220.943, 145.436 214.899, 145.041 214.164 C 144.639 213.415, 142.170 212.677, 139.412 212.483 C 136.711 212.292, 130.063 210.981, 124.641 209.568 C 112.966 206.527, 111.209 206.475, 104.014 208.959" stroke="none" fill="#ff0000" fill-rule="evenodd"/>
</svg>